<?xml version="1.0" standalone="no"?>
<!DOCTYPE svg PUBLIC "-//W3C//DTD SVG 20010904//EN"
 "http://www.w3.org/TR/2001/REC-SVG-20010904/DTD/svg10.dtd">
<svg version="1.0" xmlns="http://www.w3.org/2000/svg"
 width="250.000000pt" height="250.000000pt" viewBox="0 0 250.000000 250.000000"
 preserveAspectRatio="xMidYMid meet">

<g transform="translate(0.000000,250.000000) scale(0.100000,-0.100000)"
fill="#000000" stroke="none">
<path d="M0 1250 l0 -1250 1250 0 1250 0 0 1250 0 1250 -1250 0 -1250 0 0
-1250z m1180 1010 l0 -80 35 0 35 0 0 -415 c0 -413 0 -415 -21 -415 -11 0 -34
-13 -50 -29 -64 -65 -20 -171 71 -171 88 0 133 100 75 168 -14 16 -20 33 -15
38 4 5 97 160 205 344 108 184 200 339 205 343 4 5 18 3 30 -5 25 -15 21 -19
71 70 35 61 31 62 134 -25 64 -54 174 -175 196 -215 8 -14 -2 -23 -56 -53 -36
-20 -65 -40 -65 -45 0 -10 50 -99 59 -104 4 -3 36 13 72 34 l64 39 28 -61 c32
-69 72 -217 82 -300 l6 -58 -80 0 -81 0 0 -70 0 -70 81 0 80 0 -6 -57 c-10
-84 -50 -232 -82 -301 l-28 -61 -65 39 c-72 44 -71 44 -111 -29 -27 -49 -32
-40 59 -92 61 -35 62 -31 -25 -134 -54 -64 -175 -174 -215 -196 -14 -8 -23 2
-53 56 -20 36 -40 65 -45 65 -10 0 -99 -50 -104 -59 -3 -4 13 -36 34 -72 l39
-64 -61 -28 c-69 -32 -217 -72 -300 -82 l-58 -6 0 80 0 81 -70 0 -70 0 0 -81
0 -80 -57 6 c-84 10 -232 50 -301 82 l-61 28 39 64 c21 36 37 68 34 72 -5 9
-94 59 -104 59 -5 0 -25 -29 -45 -65 -30 -54 -39 -64 -53 -56 -40 22 -161 132
-215 196 -87 103 -86 99 -25 134 91 52 86 43 59 92 -40 73 -39 73 -111 29
l-65 -39 -28 61 c-32 69 -73 217 -83 301 l-6 57 81 0 81 0 0 70 0 70 -81 0
-81 0 6 58 c10 83 51 231 83 300 l28 61 64 -39 c36 -21 68 -37 72 -34 9 5 59
94 59 104 0 5 -29 25 -65 45 -75 42 -76 35 12 140 54 64 175 174 215 196 14 8
23 -2 53 -56 20 -36 40 -65 45 -65 10 0 99 50 104 59 3 4 -13 36 -34 72 l-39
64 57 27 c84 39 253 83 335 87 l27 1 0 -80z"/>
<path d="M760 915 l0 -111 64 4 c81 5 106 -7 106 -52 0 -19 -6 -39 -14 -45
-28 -23 -81 -24 -130 -3 l-46 21 0 -43 c0 -43 0 -44 44 -55 138 -35 246 21
246 127 0 76 -50 122 -132 122 l-48 0 0 35 0 35 85 0 85 0 0 38 0 37 -130 0
-130 0 0 -110z"/>
<path d="M1080 771 l0 -131 30 0 29 0 3 83 3 82 20 -53 c17 -46 22 -53 44 -50
19 2 28 14 45 58 l21 55 3 -87 3 -88 29 0 30 0 0 130 0 130 -35 0 c-33 0 -36
-3 -65 -67 l-31 -68 -29 65 c-27 61 -31 65 -64 68 l-36 3 0 -130z"/>
<path d="M1390 881 c0 -10 9 -21 20 -24 18 -5 20 -14 20 -91 0 -79 -2 -86 -20
-86 -13 0 -20 -7 -20 -20 0 -18 7 -20 65 -20 58 0 65 2 65 20 0 11 -7 20 -15
20 -12 0 -15 17 -15 90 0 73 3 90 15 90 8 0 15 9 15 20 0 18 -7 20 -65 20 -57
0 -65 -2 -65 -19z"/>
<path d="M1570 770 l0 -130 30 0 29 0 3 90 3 91 48 -91 c44 -82 51 -90 78 -90
l29 0 0 130 0 130 -25 0 c-23 0 -24 -3 -27 -77 l-3 -78 -43 78 c-43 76 -44 77
-83 77 l-39 0 0 -130z"/>
</g>
</svg>
