<?xml version="1.0" standalone="no"?>
<!DOCTYPE svg PUBLIC "-//W3C//DTD SVG 20010904//EN"
 "http://www.w3.org/TR/2001/REC-SVG-20010904/DTD/svg10.dtd">
<svg version="1.0" xmlns="http://www.w3.org/2000/svg"
 width="120.000000pt" height="120.000000pt" viewBox="0 0 120.000000 120.000000"
 preserveAspectRatio="xMidYMid meet">

<g transform="translate(0.000000,120.000000) scale(0.100000,-0.100000)"
fill="#000000" stroke="none">
<path d="M0 600 l0 -600 600 0 600 0 0 600 0 600 -600 0 -600 0 0 -600z m767
515 c229 -77 373 -277 373 -518 0 -236 -145 -435 -373 -512 -91 -30 -222 -34
-308 -9 -242 72 -399 277 -399 521 0 245 151 448 390 524 86 28 223 25 317 -6z"/>
<path d="M540 965 c-147 -25 -258 -125 -296 -267 -19 -73 -17 -135 6 -212 75
-242 371 -336 580 -185 l43 31 -35 35 -35 35 -47 -31 c-96 -60 -205 -61 -298
-2 -182 115 -166 382 27 477 92 44 209 33 290 -29 20 -15 20 -16 -4 -41 -14
-14 -23 -26 -20 -27 94 -14 185 -26 190 -23 6 3 -16 183 -24 190 -2 2 -14 -7
-27 -21 l-23 -24 -31 23 c-88 66 -186 90 -296 71z"/>
</g>
</svg>
